<?xml version="1.0" standalone="no"?>
<!DOCTYPE svg PUBLIC "-//W3C//DTD SVG 20010904//EN"
 "http://www.w3.org/TR/2001/REC-SVG-20010904/DTD/svg10.dtd">
<svg version="1.0" xmlns="http://www.w3.org/2000/svg"
 width="512.000000pt" height="512.000000pt" viewBox="0 0 512.000000 512.000000"
 preserveAspectRatio="xMidYMid meet">
<metadata>
Created by potrace 1.11, written by Peter Selinger 2001-2013
</metadata>
<g transform="translate(0.000000,512.000000) scale(0.100000,-0.100000)"
fill="#000000" stroke="none">
<path d="M2365 3557 c-50 -25 -73 -49 -106 -112 -22 -42 -51 -115 -54 -135 0
-3 -3 -9 -6 -15 -4 -5 -9 -26 -13 -45 -3 -19 -8 -46 -11 -60 -5 -26 -11 -55
-21 -105 -3 -16 -7 -43 -9 -60 -25 -189 -137 -327 -261 -320 -52 2 -134 26
-134 39 0 5 -3 6 -7 3 -3 -4 -17 0 -30 8 -13 9 -23 13 -23 11 0 -5 -39 11
-137 56 -27 12 -51 21 -55 20 -5 -1 -8 3 -8 8 0 5 -3 9 -7 8 -11 -3 -127 54
-131 64 -2 4 -11 8 -21 8 -9 0 -22 5 -28 11 -14 14 -48 34 -95 55 -21 9 -38
20 -38 24 0 12 -122 43 -160 41 -50 -4 -50 -4 -94 -26 -27 -13 -42 -28 -44
-43 -3 -22 -4 -22 -30 -4 -35 24 -100 54 -187 84 -117 42 -225 24 -225 -37 0
-14 4 -25 10 -25 5 0 18 -8 28 -17 30 -29 72 -63 77 -63 5 0 37 -25 60 -47 8
-7 17 -13 21 -13 4 0 17 -9 28 -19 12 -11 46 -35 76 -55 30 -20 51 -36 46 -36
-8 0 -107 51 -116 60 -19 19 -202 110 -221 110 -10 0 -20 4 -23 9 -3 5 -41 8
-84 7 -113 -3 -171 -42 -142 -96 6 -11 17 -20 25 -20 8 0 15 -4 15 -8 0 -5 12
-15 28 -23 37 -19 86 -52 90 -61 2 -5 8 -8 13 -8 7 0 108 -63 209 -130 42 -28
111 -70 115 -70 3 0 14 -8 25 -17 11 -10 24 -18 28 -19 13 -1 72 -39 72 -47 0
-4 -12 -4 -28 -1 -15 4 -31 7 -37 8 -5 0 -12 3 -15 6 -5 5 -111 29 -155 36
-11 1 -20 3 -20 4 0 5 -159 21 -215 21 -32 1 -83 -5 -133 -14 -10 -2 -23 -10
-28 -18 -5 -8 -9 -9 -9 -4 0 6 -9 -3 -20 -19 -17 -28 -18 -32 -3 -56 14 -24
76 -57 96 -52 4 1 10 -5 13 -13 3 -8 10 -12 15 -9 6 3 15 2 22 -3 7 -5 44 -22
82 -37 39 -16 111 -45 160 -66 90 -37 111 -46 130 -50 6 -1 21 -8 35 -15 36
-19 94 -40 103 -37 4 1 7 -2 7 -8 0 -6 3 -9 8 -8 4 0 14 -1 22 -5 8 -3 29 -10
45 -15 17 -6 82 -29 145 -52 132 -48 318 -111 340 -115 8 -2 16 -4 18 -5 1 -2
5 -3 10 -4 4 -2 27 -8 52 -15 56 -16 78 -22 113 -28 15 -3 27 -8 27 -12 0 -4
8 -7 18 -8 21 0 97 -11 97 -13 0 -2 26 -6 85 -14 265 -35 476 -144 525 -271
l17 -46 55 58 c59 63 113 135 113 152 0 6 4 11 8 11 5 0 19 32 31 70 13 39 27
72 31 75 4 3 10 -12 14 -33 10 -68 79 -183 154 -262 48 -51 72 -69 72 -57 0
24 26 73 58 109 34 37 141 110 153 102 5 -3 9 -1 9 4 0 7 78 38 120 47 3 1 23
5 45 10 56 13 55 12 58 15 5 4 79 16 153 25 28 3 66 10 83 15 17 5 31 7 31 5
0 -2 16 3 35 11 19 8 35 12 35 9 0 -2 11 0 26 5 14 6 39 12 56 15 17 3 36 9
42 13 6 3 17 8 24 9 6 2 18 4 25 6 6 1 17 5 22 8 8 5 29 12 75 24 20 5 58 18
75 25 34 14 279 101 295 105 8 2 16 4 18 5 1 2 5 3 10 5 10 2 38 14 89 36 24
10 43 16 43 13 0 -3 12 1 28 9 46 25 77 38 92 41 8 1 29 10 46 19 17 9 34 13
38 10 3 -4 6 -1 6 5 0 7 3 11 8 10 4 -1 24 6 46 15 21 9 40 17 43 17 2 0 23 9
46 19 84 38 115 49 121 43 3 -3 6 -1 6 4 0 6 23 18 50 28 48 17 80 46 80 73 0
30 -70 80 -104 74 -5 -1 -16 1 -25 5 -22 9 -62 10 -88 2 -14 -5 -23 -3 -23 3
0 6 -4 8 -8 5 -5 -3 -31 -8 -58 -11 -91 -11 -120 -15 -144 -21 -14 -3 -36 -7
-50 -9 -14 -2 -37 -8 -52 -14 -16 -6 -28 -8 -28 -5 0 4 -8 0 -17 -7 -15 -12
-16 -12 -8 1 7 12 6 13 -6 3 -9 -7 -24 -14 -35 -16 -10 -1 -25 -6 -32 -11 -7
-4 -15 -6 -17 -4 -6 5 91 68 104 68 6 0 11 4 11 8 0 5 12 14 26 20 25 12 62
35 249 158 50 32 93 57 98 56 4 -1 7 2 7 8 0 5 7 10 15 10 8 0 15 5 15 10 0 6
7 10 15 10 8 0 15 4 15 9 0 5 10 13 22 17 12 3 34 18 49 33 22 21 25 31 19 48
-15 38 -76 61 -157 60 -40 -1 -73 -5 -73 -9 0 -4 -3 -7 -7 -7 -5 1 -10 0 -13
-1 -3 -1 -12 -3 -20 -5 -20 -4 -97 -41 -140 -67 -19 -11 -56 -32 -82 -45 -27
-13 -48 -28 -48 -32 0 -5 -12 -11 -26 -14 -28 -5 -27 -4 28 36 20 15 41 27 47
27 6 0 11 3 11 8 0 4 21 21 45 37 25 17 45 33 45 38 0 4 5 7 11 7 6 0 16 6 23
13 7 6 25 21 40 32 76 55 81 62 66 89 -26 49 -117 56 -225 17 -33 -12 -70 -25
-82 -28 -13 -3 -23 -9 -23 -13 0 -4 -20 -15 -45 -26 -25 -10 -45 -22 -45 -27
0 -4 -5 -5 -10 -2 -6 4 -8 11 -5 16 8 11 -10 29 -49 49 -40 21 -169 19 -218
-3 -21 -10 -41 -17 -44 -16 -4 0 -10 -4 -13 -9 -8 -12 -67 -48 -103 -63 -16
-6 -28 -15 -28 -21 0 -5 -4 -7 -9 -3 -5 3 -16 -2 -24 -10 -9 -8 -19 -15 -24
-15 -4 0 -38 -16 -76 -35 -37 -19 -69 -35 -72 -35 -2 -1 -28 -11 -57 -24 -54
-23 -89 -38 -98 -41 -6 -2 -59 -23 -80 -32 -8 -3 -24 -8 -34 -10 -11 -2 -24
-7 -30 -12 -22 -17 -124 -4 -158 20 -78 55 -141 163 -153 264 -10 79 -41 233
-55 270 -5 13 -6 25 -4 28 11 10 -68 177 -104 218 -55 66 -154 82 -205 35 -26
-24 -26 -29 -11 -201 10 -111 9 -356 -1 -450 -4 -38 -9 -88 -11 -110 -1 -22
-3 -40 -4 -40 -5 0 -23 -141 -22 -172 0 -13 -4 -23 -9 -23 -5 0 -10 10 -11 23
0 12 -2 27 -3 32 -1 6 -5 39 -9 75 -5 36 -10 74 -12 85 -20 112 -25 481 -10
670 8 87 7 91 -17 113 -34 32 -91 35 -142 9z m-1530 -1117 c3 -5 1 -10 -4 -10
-6 0 -11 5 -11 10 0 6 2 10 4 10 3 0 8 -4 11 -10z"/>
</g>
</svg>
